<?xml version="1.0" encoding="UTF-8"?>
<svg version="1.1" xmlns="http://www.w3.org/2000/svg" width="50" height="50">
<path d="M0 0 C16.5 0 33 0 50 0 C50 16.5 50 33 50 50 C33.5 50 17 50 0 50 C0 33.5 0 17 0 0 Z " fill="#FEFEFE" transform="translate(0,0)"/>
<path d="M0 0 C1.19109375 -0.00386719 1.19109375 -0.00386719 2.40625 -0.0078125 C4.5 0.125 4.5 0.125 6.5 1.125 C6.17 2.445 5.84 3.765 5.5 5.125 C3.6128125 5.0321875 3.6128125 5.0321875 1.6875 4.9375 C-0.87705844 4.95565617 -2.21463773 4.9734013 -4.5 6.1875 C-6.06646819 9.22253213 -5.7989878 11.77633668 -5.5 15.125 C-3.79107501 18.43960705 -3.79107501 18.43960705 -0.375 18.8125 C0.57375 18.915625 1.5225 19.01875 2.5 19.125 C2.5 17.475 2.5 15.825 2.5 14.125 C0.85 14.125 -0.8 14.125 -2.5 14.125 C-2.5 12.805 -2.5 11.485 -2.5 10.125 C0.8 10.125 4.1 10.125 7.5 10.125 C7.5 14.085 7.5 18.045 7.5 22.125 C3.16377146 23.57040951 -0.96837187 23.6598333 -5.5 23.125 C-9.05680172 21.01995409 -10.19468936 20.04093192 -11.5 16.125 C-12.0074473 12.31914525 -12.36096143 8.67665811 -10.453125 5.23828125 C-7.13375598 1.20622418 -5.07814257 -0.01648748 0 0 Z " fill="#D461F5" transform="translate(18.5,9.875)"/>
<path d="M0 0 C1.65 0 3.3 0 5 0 C5 6.27 5 12.54 5 19 C7.97 19 10.94 19 14 19 C14 20.32 14 21.64 14 23 C9.38 23 4.76 23 0 23 C0 15.41 0 7.82 0 0 Z " fill="#A8EA53" transform="translate(29,10)"/>
</svg>
